<svg width="89" height="28" viewBox="0 0 89 28" fill="none" xmlns="http://www.w3.org/2000/svg">
<path d="M1.05952 19.4789C1.05952 20.065 1.533 20.5385 2.11905 20.5385H7.41667V15.2409H1.05952V19.4789ZM9.53571 20.5385H14.8333C15.4194 20.5385 15.8929 20.065 15.8929 19.4789V15.2409H9.53571V20.5385ZM15.8929 9.94323H14.4989C14.7042 9.5426 14.8333 9.09893 14.8333 8.61883C14.8333 7.01299 13.5255 5.70514 11.9196 5.70514C10.5423 5.70514 9.6516 6.41038 8.5093 7.96656C7.367 6.41038 6.47634 5.70514 5.09896 5.70514C3.49312 5.70514 2.18527 7.01299 2.18527 8.61883C2.18527 9.09893 2.31109 9.5426 2.51968 9.94323H1.05952C0.473475 9.94323 0 10.4167 0 11.0028V13.6516C0 13.9429 0.238393 14.1813 0.529762 14.1813H16.4226C16.714 14.1813 16.9524 13.9429 16.9524 13.6516V11.0028C16.9524 10.4167 16.4789 9.94323 15.8929 9.94323ZM5.09565 9.94323C4.36391 9.94323 3.77124 9.35056 3.77124 8.61883C3.77124 7.8871 4.36391 7.29442 5.09565 7.29442C5.75454 7.29442 6.24126 7.40369 7.94643 9.94323H5.09565ZM11.9196 9.94323H9.06886C10.7707 7.41031 11.2442 7.29442 11.9196 7.29442C12.6514 7.29442 13.244 7.8871 13.244 8.61883C13.244 9.35056 12.6514 9.94323 11.9196 9.94323Z" fill="#E5484D"/>
<path d="M23.9217 9.78919C24.5774 9.78919 25.1436 9.92629 25.6205 10.2005C26.0973 10.4628 26.461 10.8264 26.7113 11.2913V9.91437H30.6633V19.8212C30.6633 20.763 30.4904 21.6213 30.1447 22.3962C29.799 23.1711 29.2387 23.7911 28.4638 24.256C27.7008 24.7209 26.7173 24.9534 25.5132 24.9534C23.8919 24.9534 22.6043 24.5719 21.6506 23.8089C20.7088 23.0579 20.1723 22.0326 20.0412 20.7332H23.9395C24.0468 21.2577 24.476 21.52 25.2271 21.52C25.692 21.52 26.0556 21.4008 26.3179 21.1624C26.5802 20.9239 26.7113 20.4769 26.7113 19.8212V18.6231C26.461 19.088 26.0973 19.4576 25.6205 19.7318C25.1436 19.994 24.5774 20.1252 23.9217 20.1252C23.1348 20.1252 22.4255 19.9225 21.7937 19.5172C21.1618 19.0999 20.6611 18.5038 20.2916 17.7289C19.9339 16.9421 19.7551 16.0182 19.7551 14.9572C19.7551 13.8962 19.9339 12.9782 20.2916 12.2033C20.6611 11.4165 21.1618 10.8204 21.7937 10.4151C22.4255 9.99782 23.1348 9.78919 23.9217 9.78919ZM26.7113 14.9572C26.7113 14.4207 26.5742 14.0035 26.3 13.7054C26.0258 13.4074 25.6741 13.2584 25.245 13.2584C24.8158 13.2584 24.4641 13.4074 24.1899 13.7054C23.9157 14.0035 23.7786 14.4207 23.7786 14.9572C23.7786 15.4937 23.9157 15.9109 24.1899 16.2089C24.4641 16.507 24.8158 16.656 25.245 16.656C25.6741 16.656 26.0258 16.507 26.3 16.2089C26.5742 15.9109 26.7113 15.4937 26.7113 14.9572ZM34.4488 9.10966C33.7573 9.10966 33.203 8.92488 32.7857 8.55531C32.3685 8.18574 32.1598 7.7208 32.1598 7.16049C32.1598 6.58826 32.3685 6.11735 32.7857 5.74779C33.203 5.3663 33.7573 5.17555 34.4488 5.17555C35.1283 5.17555 35.6767 5.3663 36.0939 5.74779C36.5112 6.11735 36.7198 6.58826 36.7198 7.16049C36.7198 7.7208 36.5112 8.18574 36.0939 8.55531C35.6767 8.92488 35.1283 9.10966 34.4488 9.10966ZM36.4158 9.91437V20H32.4459V9.91437H36.4158ZM44.0206 9.19908C43.806 9.17523 43.657 9.16331 43.5735 9.16331C43.2755 9.16331 43.049 9.22292 42.894 9.34213C42.739 9.44943 42.6317 9.64017 42.5721 9.91437H44.0206V13.2226H42.5363V20H38.5665V13.2226H37.4935V9.91437H38.5665C38.5903 8.603 39.0016 7.58967 39.8003 6.87437C40.611 6.14716 41.7435 5.78355 43.198 5.78355C43.3649 5.78355 43.6391 5.79547 44.0206 5.81932V9.19908ZM51.366 16.6202V20H49.8639C47.0981 20 45.7152 18.6231 45.7152 15.8692V13.2226H44.4634V9.91437H45.7152V7.48237H49.6851V9.91437H51.3302V13.2226H49.6851V15.9407C49.6851 16.1791 49.7387 16.352 49.846 16.4593C49.9652 16.5666 50.156 16.6202 50.4182 16.6202H51.366ZM54.845 20.1431C54.1535 20.1431 53.5992 19.9583 53.1819 19.5887C52.7646 19.2191 52.556 18.7542 52.556 18.1939C52.556 17.6217 52.7646 17.1507 53.1819 16.7812C53.5992 16.3997 54.1535 16.2089 54.845 16.2089C55.5245 16.2089 56.0729 16.3997 56.4901 16.7812C56.9074 17.1507 57.116 17.6217 57.116 18.1939C57.116 18.7542 56.9074 19.2191 56.4901 19.5887C56.0729 19.9583 55.5245 20.1431 54.845 20.1431ZM72.0538 9.84284C73.3413 9.84284 74.3367 10.2303 75.0401 11.0052C75.7554 11.7801 76.113 12.8292 76.113 14.1525V20H72.1611V14.6532C72.1611 14.224 72.0299 13.8902 71.7676 13.6518C71.5173 13.4014 71.1775 13.2762 70.7483 13.2762C70.3073 13.2762 69.9615 13.4014 69.7112 13.6518C69.4608 13.8902 69.3356 14.224 69.3356 14.6532V20H65.3837V14.6532C65.3837 14.224 65.2525 13.8902 64.9902 13.6518C64.7399 13.4014 64.4001 13.2762 63.9709 13.2762C63.5299 13.2762 63.1841 13.4014 62.9338 13.6518C62.6834 13.8902 62.5582 14.224 62.5582 14.6532V20H58.5884V9.91437H62.5582V11.2734C62.8444 10.8442 63.2318 10.4985 63.7206 10.2363C64.2213 9.97398 64.8055 9.84284 65.4731 9.84284C66.2003 9.84284 66.844 10.0038 67.4044 10.3257C67.9647 10.6356 68.4117 11.0767 68.7455 11.649C69.1151 11.1244 69.586 10.6952 70.1582 10.3614C70.7305 10.0157 71.3623 9.84284 72.0538 9.84284ZM87.5966 14.8678C87.5966 15.142 87.5787 15.4042 87.5429 15.6546H81.1589C81.2185 16.5249 81.5821 16.96 82.2498 16.96C82.6789 16.96 82.9889 16.7633 83.1796 16.3699H87.382C87.2389 17.0852 86.9349 17.7289 86.47 18.3012C86.017 18.8615 85.4388 19.3086 84.7354 19.6424C84.0439 19.9642 83.281 20.1252 82.4465 20.1252C81.4451 20.1252 80.5509 19.9165 79.7641 19.4993C78.9892 19.082 78.3812 18.486 77.9401 17.7111C77.5109 16.9242 77.2964 16.0063 77.2964 14.9572C77.2964 13.9081 77.5109 12.9961 77.9401 12.2212C78.3812 11.4344 78.9892 10.8323 79.7641 10.4151C80.5509 9.99782 81.4451 9.78919 82.4465 9.78919C83.4479 9.78919 84.336 9.99782 85.1109 10.4151C85.8978 10.8204 86.5057 11.4046 86.9349 12.1675C87.376 12.9305 87.5966 13.8306 87.5966 14.8678ZM83.573 13.92C83.573 13.5862 83.4658 13.3359 83.2512 13.169C83.0366 12.9901 82.7683 12.9007 82.4465 12.9007C81.7431 12.9007 81.3318 13.2405 81.2126 13.92H83.573Z" fill="#E5484D"/>
</svg>
